<svg viewBox="0 0 2000 2000" xmlns="http://www.w3.org/2000/svg">
<defs>
<style type="text/css">

        @font-face {
            font-family: "Tengwar Annatar";
            src: url('./resources/fonts/TengwarAnnatarBoldItalic-K7r7.ttf') format("truetype");
        }
    
</style>
</defs>
<path d="M10,90 q10,-10,20,0 t20,0" fill="none" stroke="red"/>
<circle cx="292.12161283202596" cy="289.14039523594425" fill="green" r="1"/>
<circle cx="310.1750260625473" cy="290.7550638387016" fill="yellow" r="1"/>
<circle cx="310.5478491384155" cy="309.31358569795907" fill="purple" r="1"/>
<circle cx="291.7176672612487" cy="311.7644789261832" fill="orange" r="1"/>
<circle cx="287.12691075469695" cy="292.90890887927236" fill="red" r="1"/>
<circle cx="305.75234285301633" cy="286.146821602919" fill="blue" r="1"/>
<circle cx="314.68578939590026" cy="304.2810734424049" fill="green" r="1"/>
<circle cx="297.30541875519083" cy="315.3538018716904" fill="yellow" r="1"/>
<circle cx="284.157798641942" cy="298.98774700260003" fill="purple" r="1"/>
<circle cx="299.25530829148744" cy="283.8616780841603" fill="orange" r="1"/>
<circle cx="316.232058419568" cy="297.44651621040344" fill="red" r="1"/>
<circle cx="304.39011222619854" cy="316.1160452543849" fill="blue" r="1"/>
<circle cx="284.21420136969493" cy="306.2296518043514" fill="green" r="1"/>
<circle cx="291.9533932735855" cy="284.7601797848393" fill="yellow" r="1"/>
<circle cx="314.47966031182244" cy="290.18473447866876" fill="purple" r="1"/>
<circle cx="311.51006249626744" cy="313.50993935338045" fill="orange" r="1"/>
<circle cx="287.661672944674" cy="313.10594084664706" fill="red" r="1"/>
<circle cx="285.42128751704576" cy="289.0245208606023" fill="blue" r="1"/>
<circle cx="309.43493212238184" cy="284.0945903590619" fill="green" r="1"/>
<circle cx="317.0646234170366" cy="307.7329572373527" fill="yellow" r="1"/>
<circle cx="294.1116248828458" cy="318.036824512083" fill="purple" r="1"/>
<circle cx="281.19533832802625" cy="296.0776665870171" fill="orange" r="1"/>
<circle cx="301.8580500375491" cy="280.64676641855516" fill="red" r="1"/>
<circle cx="319.67033029309084" cy="299.7205252055873" fill="blue" r="1"/>
<circle cx="302.4637741120461" cy="319.74664065416727" fill="green" r="1"/>
<circle cx="280.42407737627536" cy="304.66725330681186" fill="yellow" r="1"/>
<circle cx="293.13845153677306" cy="280.8448661532531" fill="purple" r="1"/>
<circle cx="318.48452036412505" cy="290.9821007486085" fill="orange" r="1"/>
<circle cx="311.10753150067785" cy="317.56766188089495" fill="red" r="1"/>
<circle cx="283.5885274168336" cy="313.10204440734253" fill="blue" r="1"/>
<circle cx="285.02620277178914" cy="284.9738429208122" fill="green" r="1"/>
<circle cx="313.42512163438977" cy="283.30370972036485" fill="yellow" r="1"/>
<circle cx="318.2445350964235" cy="311.62484146624683" fill="purple" r="1"/>
<circle cx="290.3553145454662" cy="319.5954087092641" fill="orange" r="1"/>
<circle cx="279.2720128296651" cy="292.4932998017484" fill="red" r="1"/>
<circle cx="305.2353559044907" cy="278.3761463066059" fill="blue" r="1"/>
<circle cx="322.2673770739529" cy="302.85725711940614" fill="green" r="1"/>
<circle cx="299.5991781997702" cy="322.6459564135512" fill="yellow" r="1"/>
<circle cx="277.24977141467645" cy="302.10406732675693" fill="purple" r="1"/>
<circle cx="295.37356521976704" cy="277.42576465914624" fill="orange" r="1"/>
<circle cx="322.11554746499326" cy="292.86539697504963" fill="red" r="1"/>
<circle cx="309.59659689139437" cy="321.3753439294922" fill="blue" r="1"/>
<circle cx="279.64155542893786" cy="311.98055652492786" fill="green" r="1"/>
<circle cx="285.74484647871174" cy="280.9267045824665" fill="yellow" r="1"/>
<circle cx="317.53190639942346" cy="283.6099951799319" fill="purple" r="1"/>
<circle cx="318.3560789129272" cy="315.74974180557854" fill="orange" r="1"/>
<circle cx="286.2544355374411" cy="320.126088979373" fill="red" r="1"/>
<circle cx="278.3251323103043" cy="288.4587647700003" fill="blue" r="1"/>
<circle cx="309.16147000030315" cy="277.02028138915654" fill="green" r="1"/>
<circle cx="324.0207394145319" cy="306.6335569628334" fill="yellow" r="1"/>
<circle cx="296.0129625672595" cy="324.78111241469855" fill="purple" r="1"/>
<circle cx="274.7526416503265" cy="298.7466459545801" fill="orange" r="1"/>
<circle cx="298.46547057269305" cy="274.5904502315226" fill="red" r="1"/>
<circle cx="325.2614808750751" cy="295.6574680198972" fill="blue" r="1"/>
<circle cx="307.13587799135047" cy="324.8007912231154" fill="green" r="1"/>
<circle cx="275.97095877001874" cy="309.8795332667015" fill="yellow" r="1"/>
<circle cx="287.4613509959078" cy="277.0482619143521" fill="purple" r="1"/>
<circle cx="321.5783112612577" cy="284.9209919718743" fill="orange" r="1"/>
<circle cx="317.46746756642835" cy="319.9220374664785" fill="red" r="1"/>
<circle cx="282.00008444458217" cy="319.6723928386414" fill="blue" r="1"/>
<circle cx="278.33592419938066" cy="284.1675074702364" fill="green" r="1"/>
<circle cx="313.44364242655587" cy="276.58486646830926" fill="yellow" r="1"/>
<circle cx="324.9008809701028" cy="310.86030049827224" fill="purple" r="1"/>
<circle cx="291.88784431334653" cy="326.09967298866974" fill="orange" r="1"/>
<circle cx="273.00678884406994" cy="294.7686950489029" fill="red" r="1"/>
<circle cx="302.251873530121" cy="272.43318905632464" fill="blue" r="1"/>
<circle cx="327.809625614602" cy="299.2096056834253" fill="green" r="1"/>
<circle cx="303.8585691238397" cy="327.7148235483568" fill="yellow" r="1"/>
<circle cx="272.7202836659926" cy="306.91498927953535" fill="purple" r="1"/>
<circle cx="290.07827227728467" cy="273.4941644350475" fill="orange" r="1"/>
<circle cx="325.3989569109685" cy="287.15893353981977" fill="red" r="1"/>
<circle cx="315.63597293459384" cy="323.9690707034847" fill="blue" r="1"/>
<circle cx="277.769701054007" cy="318.2705722070159" fill="green" r="1"/>
<circle cx="279.28939107706094" cy="279.7992406568199" fill="yellow" r="1"/>
<circle cx="317.9023776212722" cy="277.07610688592854" fill="purple" r="1"/>
<circle cx="324.8807240476377" cy="315.3606500795149" fill="orange" r="1"/>
<circle cx="287.3956410398888" cy="326.554286569303" fill="red" r="1"/>
<circle cx="272.07898530753505" cy="290.3347561570772" fill="blue" r="1"/>
<circle cx="306.57763285376103" cy="271.03908243785907" fill="green" r="1"/>
<circle cx="329.65786336166724" cy="303.37803801350356" fill="yellow" r="1"/>
<circle cx="299.8952804575433" cy="329.9998172297337" fill="purple" r="1"/>
<circle cx="270.0209701920764" cy="303.2027756361673" fill="orange" r="1"/>
<circle cx="293.49590441610576" cy="270.407826361763" fill="red" r="1"/>
<circle cx="328.840425268726" cy="290.2414206813168" fill="blue" r="1"/>
<circle cx="312.92576093908286" cy="327.729491595514" fill="green" r="1"/>
<circle cx="273.73042033719923" cy="315.96587562082846" fill="yellow" r="1"/>
<circle cx="281.159638864137" cy="275.5246901496577" fill="purple" r="1"/>
<circle cx="322.3655730914551" cy="278.48765144641845" fill="orange" r="1"/>
<circle cx="323.9471358740916" cy="319.96333347484324" fill="red" r="1"/>
<circle cx="282.70462171852483" cy="326.1126385128098" fill="blue" r="1"/>
<circle cx="272.02018919687725" cy="285.60798181555293" fill="green" r="1"/>
<circle cx="311.2867409865865" cy="270.47696699351997" fill="yellow" r="1"/>
<circle cx="330.7204587135451" cy="308.0158228791166" fill="purple" r="1"/>
<circle cx="295.38209823289833" cy="331.5543179813698" fill="orange" r="1"/>
<circle cx="267.98882792544333" cy="298.86648228371797" fill="red" r="1"/>
<circle cx="297.6046260244665" cy="267.9178837431609" fill="blue" r="1"/>
<circle cx="331.762927706447" cy="294.07408880297544" fill="green" r="1"/>
<circle cx="309.41484873560876" cy="331.0541562964703" fill="yellow" r="1"/>
<circle cx="270.03884331800197" cy="312.8190908521925" fill="purple" r="1"/>
<circle cx="283.9037738684256" cy="271.5059391395115" fill="orange" r="1"/>
<circle cx="326.6676911116388" cy="280.7949420523077" fill="red" r="1"/>
<circle cx="322.1061238920611" cy="324.5014139687661" fill="blue" r="1"/>
<circle cx="277.98106338395576" cy="324.7621976064045" fill="green" r="1"/>
<circle cx="272.8612333640341" cy="280.75195216447696" fill="yellow" r="1"/>
<circle cx="316.2203063354442" cy="270.7955198234184" fill="purple" r="1"/>
<circle cx="330.93156092357225" cy="312.97067996796386" fill="orange" r="1"/>
<circle cx="290.46286001868646" cy="332.29617564010994" fill="red" r="1"/>
<circle cx="266.7212404577424" cy="294.03978495953385" fill="blue" r="1"/>
<circle cx="302.28251028386" cy="266.13570985825817" fill="green" r="1"/>
<circle cx="334.04250678928133" cy="298.5481971546614" fill="yellow" r="1"/>
<circle cx="305.19751985284734" cy="333.80807281374166" fill="purple" r="1"/>
<circle cx="266.8393221523474" cy="308.9089530633067" fill="orange" r="1"/>
<circle cx="287.45950861077756" cy="267.89492134074675" fill="red" r="1"/>
<circle cx="330.6510775662887" cy="283.95283688543816" fill="blue" r="1"/>
<circle cx="319.3851947269284" cy="328.8134382779818" fill="green" r="1"/>
<circle cx="273.3882602106123" cy="322.51255883683416" fill="yellow" r="1"/>
<circle cx="274.6104956859778" cy="275.92983027296543" fill="purple" r="1"/>
<circle cx="321.2172593066635" cy="272.02093805157506" fill="orange" r="1"/>
<circle cx="330.2475192054424" cy="318.0855628034184" fill="red" r="1"/>
<circle cx="285.2887148573519" cy="332.164857988987" fill="blue" r="1"/>
<circle cx="266.29485025265427" cy="288.86613811343966" fill="green" r="1"/>
<circle cx="307.3954965097581" cy="265.15309724847623" fill="yellow" r="1"/>
<circle cx="335.57335693760047" cy="303.54066041722064" fill="purple" r="1"/>
<circle cx="300.3844383457398" cy="335.8727223271154" fill="orange" r="1"/>
<circle cx="264.2616422848079" cy="304.33241131715" fill="red" r="1"/>
<circle cx="291.74473594680546" cy="264.83111296313126" fill="blue" r="1"/>
<circle cx="334.16825157921875" cy="287.8950182148334" fill="green" r="1"/>
<circle cx="315.83411912826915" cy="332.74569699108235" fill="yellow" r="1"/>
<circle cx="269.08430515602913" cy="319.3963865788056" fill="purple" r="1"/>
<circle cx="277.2527734673" cy="271.30220069290976" fill="orange" r="1"/>
<circle cx="326.11644030641395" cy="274.15562835506506" fill="red" r="1"/>
<circle cx="328.6483785257129" cy="323.2006553322848" fill="blue" r="1"/>
<circle cx="280.0162371678063" cy="331.12313003325073" fill="green" r="1"/>
<circle cx="266.7637002276984" cy="283.497019134541" fill="yellow" r="1"/>
<circle cx="312.7989953951453" cy="265.04022716213603" fill="purple" r="1"/>
<circle cx="336.27001735018234" cy="308.91548324082726" fill="orange" r="1"/>
<circle cx="295.10140469460066" cy="337.1484019041724" fill="red" r="1"/>
<circle cx="262.4185453029717" cy="299.2035937875602" fill="blue" r="1"/>
<circle cx="296.65833694080646" cy="262.43893920562385" fill="green" r="1"/>
<circle cx="337.08459473957305" cy="292.53455741421635" fill="yellow" r="1"/>
<circle cx="311.5246237094773" cy="336.15498649363536" fill="purple" r="1"/>
<circle cx="265.21928049468835" cy="315.46937460574384" fill="orange" r="1"/>
<circle cx="280.74904634383006" cy="267.0242394579292" fill="red" r="1"/>
<circle cx="330.7594217530625" cy="277.1776869398121" fill="blue" r="1"/>
<circle cx="326.13868519782466" cy="328.1561562740553" fill="green" r="1"/>
<circle cx="274.80471048842685" cy="329.1581444270381" fill="yellow" r="1"/>
<circle cx="268.15786273796476" cy="278.0893109513711" fill="purple" r="1"/>
<circle cx="318.34037688751755" cy="265.8440257696576" fill="orange" r="1"/>
<circle cx="336.06927714242784" cy="314.52608847634946" fill="red" r="1"/>
<circle cx="289.48721635387915" cy="337.55637602338453" fill="blue" r="1"/>
<circle cx="261.4033494544125" cy="293.65188479453957" fill="green" r="1"/>
<circle cx="302.08186149279487" cy="260.8251885425747" fill="yellow" r="1"/>
<circle cx="339.28111821838274" cy="297.76532966336475" fill="purple" r="1"/>
<circle cx="306.54926311497275" cy="338.91152981637777" fill="orange" r="1"/>
<circle cx="261.93221344989297" cy="310.80942307320294" fill="red" r="1"/>
<circle cx="285.0369798433499" cy="263.2425786025232" fill="blue" r="1"/>
<circle cx="334.9937004507727" cy="281.041072584094" fill="green" r="1"/>
<circle cx="322.7476516151184" cy="332.79549276954384" fill="yellow" r="1"/>
<circle cx="269.8129291274349" cy="326.28194726679766" fill="purple" r="1"/>
<circle cx="270.482593534043" cy="272.80215605009323" fill="orange" r="1"/>
<circle cx="323.86202671448143" cy="267.58698284519977" fill="red" r="1"/>
<circle cx="334.93168279970047" cy="320.21824761894834" fill="blue" r="1"/>
<circle cx="283.6908990715339" cy="337.04069690091035" fill="green" r="1"/>
<circle cx="261.28783372265525" cy="287.81935214714696" fill="yellow" r="1"/>
<circle cx="307.8818725941993" cy="260.0766223321622" fill="purple" r="1"/>
<circle cx="340.65710285946585" cy="303.46409974954736" fill="orange" r="1"/>
<circle cx="301.01961998460314" cy="340.9018382849353" fill="red" r="1"/>
<circle cx="259.3480241840736" cy="305.51514843511353" fill="blue" r="1"/>
<circle cx="290.032084803944" cy="260.0920976917574" fill="green" r="1"/>
<circle cx="338.67602631762645" cy="285.6764184549301" fill="yellow" r="1"/>
<circle cx="318.5287049380806" cy="336.968731291695" fill="purple" r="1"/>
<circle cx="265.19574455719453" cy="322.5313959414845" fill="orange" r="1"/>
<circle cx="273.7180404859647" cy="267.7935005922312" fill="red" r="1"/>
<circle cx="329.20476369209626" cy="270.2664872965064" fill="blue" r="1"/>
<circle cx="332.8425710741989" cy="325.8334187678711" fill="green" r="1"/>
<circle cx="277.8684884654393" cy="335.5695965284343" fill="yellow" r="1"/>
<circle cx="262.1205003770359" cy="281.85768734935203" fill="purple" r="1"/>
<circle cx="313.91280999084296" cy="260.2579099925696" fill="orange" r="1"/>
<circle cx="341.132469217343" cy="309.49315416941755" fill="red" r="1"/>
<circle cx="295.0639373138204" cy="342.03136073407694" fill="blue" r="1"/>
</svg>