<svg viewBox="0 0 2000 2000" xmlns="http://www.w3.org/2000/svg">
<defs>
<style type="text/css">

        @font-face {
            font-family: "Tengwar Annatar";
            src: url('./resources/fonts/TengwarAnnatarBoldItalic-K7r7.ttf') format("truetype");
        }
    
</style>
</defs>
<path d="M354.10687,291.48837 Q373.7185,276.218,384.66318,257.19644 Q388.8923,235.98314,387.0548,213.8521 M314.6337,353.72015 Q331.98865,371.25116,352.1199,379.8969 Q373.68707,381.6714,395.4946,377.3355 M247.38068,320.7655 Q232.13852,339.93518,225.899,360.90192 Q226.60355,382.54065,233.38745,403.74377 M273.17798,249.20059 Q252.48282,236.42235,230.96463,232.66414 Q209.53745,235.83984,189.21234,244.99007 M348.26553,267.28244 Q358.4397,245.36665,359.6746,223.58702 Q354.0677,202.65173,342.66333,183.46742 M338.36688,345.03314 Q361.18692,352.49915,382.93576,351.20218 Q403.1052,343.2356,420.90005,329.7183 M258.87225,343.68646 Q254.18146,367.08698,257.98547,388.51428 Q268.20953,407.65393,283.67136,423.828 M251.4043,263.41507 Q227.75044,261.5292,206.92995,267.78253 Q189.0708,280.13263,174.72849,297.3453 M331.44977,246.98196 Q330.53824,223.40094,321.92545,203.46361 Q307.60837,187.11903,288.8611,174.79646 M356.88208,325.77652 Q380.06912,322.11185,398.85956,311.26013 Q413.47504,295.16064,423.61533,275.1152 M280.37207,360.12274 Q286.70987,382.6037,299.65094,399.9994 Q317.32507,412.69357,338.4154,420.51663 M237.3178,286.92557 Q215.84213,295.82214,200.0699,310.67593 Q189.4644,329.6965,184.06427,351.56458 M306.1935,235.48923 Q294.8849,215.3015,278.31967,201.35942 Q258.19836,192.98308,235.83015,190.0808 M365.56778,299.06842 Q384.20493,285.5249,396.13477,267.4714 Q402.17026,246.50946,402.5314,223.92563 M308.2126,365.82214 Q323.78625,382.6693,343.08588,392.43164 Q364.6173,396.0448,387.12894,393.85385 M234.74692,315.55753 Q219.9032,332.93176,212.43474,353.21957 Q211.2942,375.04187,216.0157,397.19382 M277.12817,236.14955 Q258.2045,223.4942,237.19879,218.41563 Q215.36832,219.7661,193.85954,226.96437 M361.61508,269.94034 Q371.9277,249.73663,374.5519,228.29218 Q370.7242,206.73647,361.13458,186.14676 M337.02512,358.55887 Q358.22488,366.4068,379.8238,366.54443 Q400.82507,360.28522,420.23093,348.4203 M245.29509,343.6735 Q240.00027,365.57465,242.34874,387.0421 Q250.96239,407.2162,264.9574,425.18793 M273.7387,263.80133 Q250.08734,249.91281,227.7864,247.22502 Q206.73396,252.02661,187.6495,262.88712 M333.91675,269.18353 Q344.7504,244.3457,344.81213,221.94955 Q337.62247,201.58989,324.65164,183.84366 M335.1595,331.0453 Q360.81512,338.74948,383.00293,336.201 Q402.40152,326.71942,418.57785,311.80222 M272.3922,339.21494 Q267.85104,365.31802,272.95947,386.9989 Q284.607,405.18106,301.28146,419.57574 M257.0897,276.36304 Q230.90671,274.97766,210.02263,282.56232 Q193.2961,296.22162,180.87215,314.44138 M319.17447,253.82274 Q317.45117,227.92049,307.50626,208.11063 Q292.0154,193.05962,272.48245,182.77037 M348.95264,314.27023 Q374.22458,309.5242,392.69876,297.36536 Q405.87643,280.24695,413.89417,259.65005 M291.01807,351.17935 Q298.66394,375.4865,312.8619,392.38275 Q331.38284,403.51385,352.7804,409.1523 M247.19266,296.62582 Q224.16591,307.01355,209.06761,323.04996 Q200.12947,342.73032,196.94768,364.65463 M297.5177,246.2056 Q284.57855,224.75255,266.92758,211.64722 Q246.34592,205.01979,224.17592,204.34067" fill="none" stroke="red"/>
</svg>