<svg viewBox="0 0 2000 2000" xmlns="http://www.w3.org/2000/svg">
<defs>
<style type="text/css">

        @font-face {
            font-family: "Tengwar Annatar";
            src: url('./resources/fonts/TengwarAnnatarBoldItalic-K7r7.ttf') format("truetype");
        }
    
</style>
</defs>
<text>

<textPath fill="black" font-family="Tengwar Annatar" font-size="15" href="#test_path" text-anchor="start" x="0" y="600">᚛ᚂᚑᚏᚓᚋ ᚔᚚᚄᚒᚋ ᚇᚑᚂᚑᚏ ᚄᚔᚈ ᚐᚋᚓᚈ  ᚉᚑᚅᚄᚓᚉᚈᚓᚈᚒᚏ ᚐᚇᚔᚚᚔᚄᚉᚔᚅᚌ ᚓᚂᚔᚈ  ᚄᚓᚇ ᚇᚑ ᚓᚔᚒᚄᚋᚑᚇ ᚈᚓᚋᚚᚑᚏ ᚔᚅᚉᚔᚇᚔᚇᚒᚅᚈ ᚒᚈ ᚂᚐᚁᚑᚏᚓ ᚓᚈ ᚇᚑᚂᚑᚏᚓ ᚋᚐᚌᚅᚐ ᚐᚂᚔᚊᚒᚐ  ᚒᚈ ᚓᚅᚔᚋ ᚐᚇ ᚋᚔᚅᚔᚋ ᚃᚓᚅᚔᚐᚋ  ᚊᚒᚔᚄ ᚅᚑᚄᚈᚏᚒᚇ ᚓᚖᚓᚏᚉᚔᚈᚐᚈᚔᚑᚅ ᚒᚂᚂᚐᚋᚉᚑ ᚂᚐᚁᚑᚏᚔᚄ ᚅᚔᚄᚔ ᚒᚈ ᚐᚂᚔᚊᚒᚔᚚ ᚓᚖ ᚓᚐ ᚉᚑᚋᚋᚑᚇᚑ ᚉᚑᚅᚄᚓᚊᚒᚐᚈ  ᚇᚒᚔᚄ ᚐᚒᚈᚓ ᚔᚏᚒᚏᚓ ᚇᚑᚂᚑᚏ ᚔᚅ ᚏᚓᚚᚏᚓᚆᚓᚅᚇᚓᚏᚔᚈ ᚔᚅ ᚃᚑᚂᚒᚚᚈᚐᚈᚓ ᚃᚓᚂᚔᚈ ᚓᚄᚄᚓ ᚉᚔᚂᚂᚒᚋ ᚇᚑᚂᚑᚏᚓ ᚓᚒ ᚃᚒᚌᚔᚐᚈ ᚅᚒᚂᚂᚐ ᚚᚐᚏᚔᚐᚈᚒᚏ  ᚓᚖᚉᚓᚚᚈᚓᚒᚏ ᚄᚔᚅᚈ ᚑᚉᚉᚐᚓᚉᚐᚈ ᚉᚒᚚᚔᚇᚐᚈᚐᚈ ᚅᚑᚅ ᚚᚏᚑᚔᚇᚓᚅᚈ  ᚄᚒᚅᚈ ᚔᚅ ᚉᚒᚂᚚᚐ ᚊᚒᚔ ᚑᚃᚃᚔᚉᚔᚐ ᚇᚓᚄᚓᚏᚒᚅᚈ ᚋᚑᚂᚂᚔᚈ ᚐᚅᚔᚋ ᚔᚇ ᚓᚄᚈ ᚂᚐᚁᚑᚏᚒᚋ ᚜</textPath>
<textPath fill="black" font-family="Tengwar Annatar" font-size="14" href="#circle1" text-anchor="start" x="0" y="600">Hello, World, neat this is cool!</textPath>
</text>
<path d="M359.51755,290.63724 C369.1934,286.44553,375.40488,280.37903,381.09033,273.83978 C386.43262,267.69525,390.34644,260.32224,393.12952,252.91609 C395.89255,245.56326,397.3314,237.47415,397.78152,229.58145 C398.23764,221.58427,397.436,213.22762,395.76028,205.2373 C394.04938,197.07928,391.15515,188.85857,387.4941,181.15227 C383.74722,173.26527,378.90317,165.56094,373.40762,158.50328 C367.78204,151.27867,361.1601,144.44669,354.01587,138.3761 M316.09708,359.09216 C321.3087,367.78427,328.06778,373.52576,335.18753,378.37625 C341.8973,382.94745,349.66177,385.9781,357.3319,387.8866 C364.95474,389.78333,373.1575,390.2899,381.0558,389.83853 C389.0618,389.38098,397.28317,387.6385,405.04407,385.06906 C412.9689,382.44534,420.82388,378.6418,428.08282,374.13358 C435.51224,369.51947,442.63815,363.8372,449.04916,357.57904 C455.61172,351.17294,461.6736,343.82126,466.92065,336.03464 M242.11874,322.84207 C234.28996,328.95862,229.31242,336.33148,225.35237,343.9287 C221.60974,351.10886,219.49968,359.16016,218.4889,366.9921 C217.48334,374.78363,217.91586,382.99323,219.2639,390.79474 C220.63084,398.70566,223.29367,406.68628,226.7262,414.11813 C230.23174,421.70807,234.89885,429.09708,240.19997,435.8159 C245.6257,442.69266,252.07745,449.14932,259.02234,454.83163 C266.1313,460.64816,274.1234,465.86237,282.4577,470.2183 M270.4958,244.12067 C263.5868,237.20665,255.6979,233.09091,247.73111,230.06459 C240.1811,227.1966,231.95094,226.03221,224.0611,225.93054 C216.20432,225.8293,208.09468,227.19556,200.4912,229.42383 C192.77817,231.68419,185.14085,235.23506,178.13356,239.48907 C170.97632,243.8341,164.14783,249.3081,158.05539,255.33763 C151.81953,261.50906,146.11487,268.6517,141.23447,276.19867 C136.23883,283.92383,131.93956,292.45883,128.53145,301.23898 M353.0921,264.01068 C359.03537,256.4257,362.22168,248.12822,364.28366,239.90332 C366.2429,232.0882,366.44897,223.78908,365.64206,215.94572 C364.83774,208.12785,362.55518,200.2237,359.47446,192.9169 C356.3482,185.50218,351.95297,178.30652,346.92966,171.81416 C341.7982,165.18205,335.58435,159.00177,328.9002,153.61429 C322.05853,148.09984,314.31244,143.22064,306.2558,139.20552 C298.00906,135.09566,289.03568,131.76735,279.91727,129.35217 M342.20355,349.53644 C350.34393,354.45978,358.93616,356.6692,367.30563,357.74905 C375.27826,358.7777,383.53598,358.02554,391.2293,356.3224 C398.9047,354.6232,406.50058,351.45358,413.4157,347.55917 C420.43546,343.60583,427.09665,338.42072,432.99005,332.6901 C439.01108,326.83545,444.4634,319.95825,449.07605,312.7017 C453.7975,305.274,457.7878,297.0196,460.8849,288.5523 C464.05502,279.88538,466.36826,270.58386,467.75757,261.23926 M254.75946,348.0551 C250.89482,356.62668,249.69257,365.3958,249.5996,373.79565 C249.51082,381.81677,251.20862,389.92365,253.78401,397.36572 C256.35568,404.797,260.3716,411.98578,265.0305,418.4193 C269.7614,424.95236,275.67178,430.9929,282.03848,436.21082 C288.5438,441.5423,295.9993,446.196,303.73862,449.97342 C311.66064,453.84,320.3215,456.88904,329.09506,459.02667 C338.07526,461.21463,347.59027,462.48117,357.0458,462.82437 M246.54472,259.75656 C237.66852,256.9772,228.84233,256.79633,220.52548,257.68213 C212.56494,258.53,204.716,261.14847,197.62294,264.56076 C190.5341,267.97104,183.84596,272.7817,177.97787,278.14587 C172.0171,283.5948,166.6756,290.1564,162.20134,297.07983 C157.62918,304.15475,153.83493,312.09607,150.94275,320.2222 C147.98224,328.54037,145.91528,337.50058,144.76672,346.47183 C143.59113,355.6542,143.39,365.26514,144.10031,374.7147 M334.59476,241.68016 C336.2753,232.62697,335.43582,223.86371,333.59207,215.74103 C331.82327,207.94872,328.32104,200.46101,324.11798,193.80997 C319.91394,187.15735,314.37042,181.05693,308.3692,175.83093 C302.27127,170.52072,295.14078,165.94788,287.74722,162.27611 C280.19113,158.5236,271.86288,155.63896,263.451,153.67102 C254.84015,151.65656,245.69173,150.60033,236.63411,150.45815 C227.3635,150.31264,217.77573,151.18245,208.44933,152.94058 M362.57028,328.3542 C371.67316,328.93573,380.2551,327.09167,388.07605,324.32303 C395.5953,321.6612,402.62347,317.3236,408.7455,312.38614 C414.8739,307.4435,420.3071,301.2385,424.8225,294.67673 C429.41214,288.00717,433.15637,280.39755,435.97684,272.6267 C438.85965,264.68417,440.7959,256.07294,441.8121,247.4802 C442.85236,238.68411,442.88177,229.46129,442.01273,220.42998 C441.12323,211.18648,439.19025,201.74098,436.40298,192.65372 M278.4093,366.135 C278.91342,375.162,281.7322,383.4475,285.38086,390.86407 C288.89618,398.00964,294.00992,404.4863,299.61603,409.99933 C305.23236,415.5224,312.01904,420.21744,319.0576,423.96292 C326.21384,427.7711,334.20657,430.63718,342.25696,432.5683 C350.486,434.54227,359.27246,435.50317,367.9386,435.552 C376.8099,435.60202,385.99213,434.60135,394.88443,432.72885 C403.98547,430.81235,413.17102,427.83716,421.90582,424.05228 M231.04958,285.6181 C222.22089,287.18124,214.34213,290.93167,207.42635,295.40436 C200.74973,299.7224,194.90903,305.54315,190.07689,311.7435 C185.23228,317.95987,181.33684,325.2408,178.41084,332.66617 C175.43506,340.21786,173.48555,348.49265,172.47069,356.72104 C171.43323,365.1328,171.46237,373.9843,172.3844,382.6151 C173.32826,391.4504,175.34944,400.4772,178.20512,409.11923 C181.12779,417.96393,185.11122,426.7748,189.8498,435.04788 M306.81284,229.03815 C304.23026,220.5255,299.6039,213.15756,294.37338,206.83165 C289.3138,200.7125,282.8643,195.5837,276.15164,191.49536 C269.41678,187.39348,261.7353,184.34875,254.0182,182.28137 C246.16763,180.17824,237.71556,179.17212,229.41318,179.08888 C220.92499,179.00377,212.11978,180.02528,203.63281,181.9095 C194.94467,183.83838,186.18646,186.85774,177.90317,190.66399 C169.4258,194.55942,161.1,199.50452,153.39255,205.14087 M372.12454,298.97525 C380.20935,295.4251,386.97003,289.9901,392.62543,284.0774 C398.10635,278.34705,402.45685,271.35492,405.74823,264.21854 C409.05286,257.05344,411.20663,249.07034,412.3873,241.1604 C413.58868,233.1115,413.63647,224.58937,412.78455,216.31819 C411.91348,207.86118,409.90976,199.21324,407.08414,190.97713 C404.1915,182.5457,400.2088,174.16618,395.49652,166.34592 C390.67395,158.34262,384.82584,150.60658,378.35886,143.56187 M309.03384,372.40436 C313.48798,379.95682,319.65387,386.0226,326.1649,390.93625 C332.48663,395.70703,339.9282,399.22308,347.39447,401.6748 C354.8959,404.1381,363.07773,405.37216,371.07904,405.64926 C379.22302,405.93134,387.7069,405.01807,395.84186,403.23923 C404.16025,401.42032,412.54166,398.45694,420.42276,394.72253 C428.4908,390.89957,436.38596,386.0005,443.64438,380.43814 C451.07248,374.74573,458.12112,368.06458,464.4139,360.84464 M228.22162,317.11325 C221.29755,322.39713,216.00438,329.2068,211.89351,336.22495 C207.8951,343.05118,205.25851,350.84348,203.6782,358.54153 C202.08939,366.28104,201.79198,374.55615,202.42361,382.54605 C203.06668,390.68045,204.93158,399.01804,207.61728,406.9132 C210.36374,414.98703,214.25209,422.99573,218.85112,430.42184 C223.55928,438.02417,229.31622,445.33505,235.66193,451.9395 C242.15585,458.6982,249.58955,464.9701,257.47525,470.43076 M274.841,229.76451 C268.81134,223.55534,261.45316,219.10164,254.02495,215.84363 C246.78755,212.6693,238.74762,210.94571,230.91867,210.2572 C223.04254,209.56454,214.78088,210.20871,206.90515,211.7427 C198.88507,213.30482,190.80013,216.09982,183.2455,219.66081 C175.51933,223.30264,167.9851,228.06961,161.1085,233.47818 C154.06871,239.0151,147.435,245.56053,141.56873,252.61298 C135.56558,259.82996,130.15045,267.92612,125.591896,276.3819 M367.77658,266.93436 C373.19485,260.25153,376.75388,252.44673,379.12048,244.7103 C381.43008,237.16013,382.2192,228.97865,382.0071,221.12138 C381.79358,213.21184,380.215,205.07022,377.79663,197.41011 C375.33334,189.60777,371.64163,181.87883,367.24805,174.76143 C362.7544,167.48189,357.16635,160.51816,351.01364,154.279 C344.7149,147.89177,337.4604,142.01988,329.78687,136.96706 C321.93454,131.79646,313.27438,127.30762,304.35153,123.71028 M340.72763,364.41476 C347.96384,368.97754,356.10788,371.59897,364.0474,373.0475 C371.80814,374.46338,380.0234,374.3087,387.80615,373.19888 C395.64545,372.08102,403.5619,369.58716,410.90756,366.31372 C418.3913,362.97876,425.6652,358.43515,432.25403,353.26233 C438.99338,347.9713,445.29752,341.6302,450.81906,334.80823 C456.47165,327.82437,461.50632,319.9492,465.68036,311.74823 C469.95157,303.35638,473.45584,294.23804,476.04465,284.95718 M239.8246,348.04083 C236.1699,355.72452,234.51627,364.0967,234.0003,372.1321 C233.4952,379.99875,234.59064,388.13983,236.58362,395.74634 C238.59224,403.41257,241.97041,411.00153,246.05862,417.9378 C250.22456,425.006,255.56439,431.7314,261.45313,437.70673 C267.4768,443.81894,274.4934,449.38245,281.9011,454.115 C289.48462,458.95987,297.88403,463.09213,306.51196,466.3328 C315.3405,469.64877,324.80533,472.1223,334.3304,473.66757 M245.09607,244.90408 C237.07535,242.19745,228.5886,241.52873,220.56505,241.94753 C212.69829,242.35814,204.7382,244.3791,197.40736,247.22926 C190.01477,250.10344,182.85152,254.32365,176.41444,259.17584 C169.85362,264.1213,163.7634,270.19147,158.47894,276.72357 C153.07307,283.40576,148.32214,291.01163,144.44029,298.91397 C140.46632,307.00388,137.29054,315.82434,135.0264,324.77322 C132.7097,333.9299,131.30046,343.6249,130.82094,353.27704 M349.22543,238.78027 C350.957,230.53615,350.63684,222.04918,349.29337,214.14452 C347.9742,206.38309,345.05502,198.70828,341.3847,191.74889 C337.6815,184.727,332.67236,178.08226,327.11682,172.22803 C321.45334,166.26003,314.72815,160.88379,307.63348,156.35902 C300.3754,151.73001,292.27423,147.85358,283.97473,144.87363 C275.47824,141.82297,266.34546,139.64598,257.18597,138.38948 C247.81407,137.10384,238.00839,136.77939,228.34822,137.37459 M366.89664,342.62442 C375.24884,343.36707,383.62228,342.0672,391.30322,339.8211 C398.85553,337.6126,406.14462,333.8341,412.6417,329.39136 C419.20053,324.90634,425.24054,319.1716,430.43564,312.98242 C435.73276,306.67175,440.32504,299.37524,444.03076,291.8062 C447.82205,284.06238,450.77292,275.5662,452.81088,266.9723 C454.89722,258.17444,456.04544,248.84221,456.27563,239.5854 C456.51117,230.1142,455.7438,220.31898,454.0781,210.77026 M264.63614,371.84982 C264.88303,380.19464,267.1405,388.34296,270.25543,395.6988 C273.32233,402.94122,277.91013,409.74936,283.0677,415.69916 C288.27698,421.70865,294.6647,427.0653,301.4096,431.53333 C308.2882,436.0899,316.06488,439.83813,324.01398,442.6756 C332.14703,445.57877,340.93268,447.56442,349.7143,448.63205 C358.70422,449.725,368.1202,449.82724,377.35953,449.02518 C386.8126,448.20456,396.47598,446.35178,405.79483,443.63306 M223.99738,272.47543 C215.77422,273.69934,207.95901,276.87976,201.02489,280.81854 C194.18875,284.7017,187.95047,290.0383,182.6257,295.84378 C177.24484,301.7104,172.64143,308.67004,168.95935,315.8855 C165.2036,323.24536,162.34901,331.40482,160.41812,339.63455 C158.44243,348.0552,157.44955,357.02087,157.36859,365.8808 C157.28569,374.95087,158.23375,384.3336,160.0612,393.44052 C161.93088,402.75787,164.84915,412.1694,168.59035,421.1425 M319.19632,220.71254 C317.0207,212.7225,312.964,205.34344,308.25687,198.92169 C303.61038,192.58267,297.59512,186.99562,291.21695,182.36557 C284.76852,177.6845,277.32544,173.89468,269.7307,171.04741 C261.98264,168.14267,253.54282,166.22011,245.13559,165.2228 C236.53293,164.20229,227.4992,164.21745,218.67159,165.12714 C209.63469,166.0584,200.40213,168.04793,191.54115,170.88115 C182.47572,173.77972,173.43332,177.73036,164.91792,182.45071 M381.64706,310.47662 C389.2966,307.387,396.1428,302.512,401.96863,297.1019 C407.72647,291.7549,412.58945,285.13983,416.46408,278.27167 C420.3832,271.32455,423.30945,263.4928,425.2836,255.61507 C427.2979,247.57695,428.26175,238.96297,428.31024,230.48393 C428.35983,221.8074,427.334,212.8187,425.44202,204.13396 C423.50522,195.2434,420.496,186.27638,416.68918,177.7722 C412.79468,169.07208,407.85773,160.51175,402.2137,152.56067 M298.53033,383.0352 C302.48447,390.24237,308.10922,396.4665,314.1481,401.62103 C320.12354,406.72144,327.2519,410.79697,334.52112,413.86523 C341.8772,416.97018,349.9978,418.9938,358.05844,420.06757 C366.28452,421.16333,374.96405,421.15387,383.40805,420.25015 C392.0491,419.32532,400.87997,417.29886,409.31277,414.44525 C417.94534,411.52408,426.53445,407.52972,434.5751,402.7937 C442.80075,397.9487,450.7717,392.08377,458.0586,385.58322 M216.58249,307.7149 C209.91275,312.473,204.3913,318.76947,199.97438,325.35495 C195.59882,331.87878,192.36382,339.42725,190.14243,347.00333 C187.89351,354.6733,186.79997,362.97913,186.64246,371.1201 C186.48167,379.42944,187.46678,388.06482,189.31407,396.36713 C191.20454,404.86353,194.20908,413.42545,197.9915,421.50006 C201.86351,429.7659,206.79611,437.86917,212.4053,445.345 C218.14339,452.9926,224.86632,460.2739,232.14555,466.8046 M283.0364,217.2278 C277.54514,211.18271,270.66345,206.43484,263.62033,202.81194 C256.6354,199.21896,248.76534,196.86668,240.9805,195.52177 C233.09587,194.15962,224.711,194.01186,216.5935,194.77473 C208.30684,195.55351,199.82497,197.50429,191.76952,200.27457 C183.52545,203.10973,175.34053,207.0574,167.72609,211.72421 C159.93144,216.50148,152.41624,222.31366,145.59973,228.72899 C138.6268,235.29153,132.12724,242.79164,126.435585,250.76187" fill="none" id="test_path" stroke="none"/>
</svg>