<svg viewBox="0 0 2000 2000" xmlns="http://www.w3.org/2000/svg">
<defs>
<style type="text/css">

        @font-face {
            font-family: "Tengwar Annatar";
            src: url('./resources/fonts/TengwarAnnatarBoldItalic-K7r7.ttf') format("truetype");
        }
    
</style>
</defs>
<path d="M354.10687,291.48837 Q365.89783,286.4027,373.7185,276.218 T384.66318,257.19644 T388.8923,235.98314 T387.0548,213.8521 T379.5401,191.9566 M314.6337,353.72015 Q321.03217,364.7418,331.98865,371.25116 T352.1199,379.8969 T373.68707,381.6714 T395.4946,377.3355 T416.43893,367.39417 M247.38068,320.7655 Q237.26753,328.36887,232.13852,339.93518 T225.899,360.90192 T226.60355,382.54065 T233.38745,403.74377 T245.63634,423.469 M273.17798,249.20059 Q264.49158,240.12111,252.48282,236.42235 T230.96463,232.66414 T209.53745,235.83984 T189.21234,244.99007 T170.95944,259.39783 M348.26553,267.28244 Q356.20166,257.6472,358.4397,245.36665 T359.6746,223.58702 T354.0677,202.65173 T342.66333,183.46742 T326.27292,166.92207 M338.36688,345.03314 Q348.80634,351.73276,361.18692,352.49915 T382.93576,351.20218 T403.1052,343.2356 T420.90005,329.7183 T435.52368,311.547 M258.87225,343.68646 Q253.48479,354.77692,254.18146,367.08698 T257.98547,388.51428 T268.20953,407.65393 T283.67136,423.828 T303.39874,436.33945 M251.4043,263.41507 Q239.82253,259.39716,227.75044,261.5292 T206.92995,267.78253 T189.0708,280.13263 T174.72849,297.3453 T164.49341,318.38382 M331.44977,246.98196 Q334.05954,235.07295,330.53824,223.40094 T321.92545,203.46361 T307.60837,187.11903 T288.8611,174.79646 T266.77362,166.97366 M356.88208,325.77652 Q368.95203,326.9585,380.06912,322.11185 T398.85956,311.26013 T413.47504,295.16064 T423.61533,275.1152 T428.92007,252.25473 M280.37207,360.12274 Q280.61847,372.18713,286.70987,382.6037 T299.65094,399.9994 T317.32507,412.69357 T338.4154,420.51663 T361.76236,423.2291 M237.3178,286.92557 Q225.42342,288.58203,215.84213,295.82214 T200.0699,310.67593 T189.4644,329.6965 T184.06427,351.56458 T183.98581,375.10464 M306.1935,235.48923 Q303.1636,223.92525,294.8849,215.3015 T278.31967,201.35942 T258.19836,192.98308 T235.83015,190.0808 T212.39346,192.645 M365.56778,299.06842 Q376.647,294.71948,384.20493,285.5249 T396.13477,267.4714 T402.17026,246.50946 T402.5314,223.92563 T397.3492,200.88829 M308.2126,365.82214 Q313.8093,376.2703,323.78625,382.6693 T343.08588,392.43164 T364.6173,396.0448 T387.12894,393.85385 T409.47525,386.1114 M234.74692,315.55753 Q225.0664,322.31497,219.9032,332.93176 T212.43474,353.21957 T211.2942,375.04187 T216.0157,397.19382 T226.2283,418.5653 M277.12817,236.14955 Q269.31152,227.3618,258.2045,223.4942 T237.19879,218.41563 T215.36832,219.7661 T193.85954,226.96437 T173.735,239.52562 M361.61508,269.94034 Q369.39786,261.17914,371.9277,249.73663 T374.5519,228.29218 T370.7242,206.73647 T361.13458,186.14676 T346.37604,167.52637 M337.02512,358.55887 Q346.60477,365.2388,358.22488,366.4068 T379.8238,366.54443 T400.82507,360.28522 T420.23093,348.4203 T437.10825,331.64386 M245.29509,343.6735 Q239.80054,353.93573,240.00027,365.57465 T242.34874,387.0421 T250.96239,407.2162 T264.9574,425.18793 T283.54645,440.10452 M273.7387,263.80133 Q263.71854,253.78238,250.08734,249.91281 T227.7864,247.22502 T206.73396,252.02661 T187.6495,262.88712 T171.3445,278.83963 M333.91675,269.18353 Q342.5625,258.173,344.7504,244.3457 T344.81213,221.94955 T337.62247,201.58989 T324.65164,183.84366 T306.93954,169.4173 M335.1595,331.0453 Q346.98575,338.2326,360.81512,338.74948 T383.00293,336.201 T402.40152,326.71942 T418.57785,311.80222 T430.93707,292.5511 M272.3922,339.21494 Q266.72824,351.67612,267.85104,365.31802 T272.95947,386.9989 T284.607,405.18106 T301.28146,419.57574 T321.83087,429.7051 M257.0897,276.36304 Q244.1783,272.26657,230.90671,274.97766 T210.02263,282.56232 T193.2961,296.22162 T180.87215,314.44138 T173.10738,336.0314 M319.17447,253.82274 Q321.6801,240.64758,317.45117,227.92049 T307.50626,208.11063 T292.0154,193.05962 T272.48245,182.77037 T250.12326,177.47527 M348.95264,314.27023 Q362.2056,315.1826,374.22458,309.5242 T392.69876,297.36536 T405.87643,280.24695 T413.89417,259.65005 T416.64566,236.80357 M291.01807,351.17935 Q291.68106,364.3269,298.66394,375.4865 T312.8619,392.38275 T331.38284,403.51385 T352.7804,409.1523 T375.8255,409.3183 M247.19266,296.62582 Q234.32887,298.8262,224.16591,307.01355 T209.06761,323.04996 T200.12947,342.73032 T196.94768,364.65463 T199.37643,387.60648 M297.5177,246.2056 Q293.837,233.79698,284.57855,224.75255 T266.92758,211.64722 T246.34592,205.01979 T224.17592,204.34067 T201.60864,209.34052" fill="none" stroke="red"/>
</svg>